<?xml version="1.0" encoding="UTF-8"?><svg id="Ebene_2" xmlns="http://www.w3.org/2000/svg" xmlns:xlink="http://www.w3.org/1999/xlink" viewBox="0 0 144 30"><defs><style>.cls-1{fill:url(#Unbenannter_Verlauf_12-2);}.cls-1,.cls-2,.cls-3{stroke-width:0px;}.cls-2{fill:#fff;}.cls-3{fill:url(#Unbenannter_Verlauf_12);}</style><linearGradient id="Unbenannter_Verlauf_12" x1="12.81" y1="479.5" x2="33.92" y2="479.5" gradientTransform="translate(-8.36 500) scale(1 -1)" gradientUnits="userSpaceOnUse"><stop offset="0" stop-color="#b000fd"/><stop offset="0" stop-color="#b000fd"/><stop offset=".98" stop-color="#30daff"/></linearGradient><linearGradient id="Unbenannter_Verlauf_12-2" x1="8.36" y1="488" x2="36.14" y2="488" xlink:href="#Unbenannter_Verlauf_12"/></defs><g id="Ebene_1-2"><path class="cls-2" d="m39,23.02h3.55V6.45h-3.55v16.57Z"/><path class="cls-2" d="m45.54,23.02h3.31v-5.61c0-1.25.02-3.81,2.33-3.81,1.14,0,1.87.66,1.87,2.23v7.2h3.31v-7.84c0-2.63-1.4-4.36-3.97-4.36-1.87,0-3.03,1.4-3.57,3.08h-1.45c.63-.92,1.12-1.94,1.14-2.72h-2.99v11.84Z"/><path class="cls-2" d="m63.14,23.02h3.9v-2.67h-2.52c-.72,0-1.03-.33-1.03-1.04v-5.56h3.03v-2.56h-3.03v-3.72h-3.31v3.72h-2.45v2.56h2.45v6.18c0,1.85,1.07,3.1,2.96,3.1Z"/><path class="cls-2" d="m73.68,23.39c3.55,0,5.02-1.94,5.67-3.46l-2.96-1.16c-.49,1.11-1.21,2.06-2.71,2.06s-2.52-.85-2.61-2.94h8.23c.33-3.95-1.73-7.08-5.64-7.08-3.38,0-5.9,2.53-5.9,6.25s2.33,6.32,5.92,6.32Zm-2.5-7.86c.23-1.49,1.14-2.3,2.47-2.3,1.4,0,2.24.83,2.38,2.3h-4.85Z"/><path class="cls-2" d="m83.28,27.63h5.99c2.29,0,4.06-1.28,4.06-3.67,0-1.92-1.56-3.57-4.06-3.57h-5.01c-.68,0-1.17,0-1.17-.52,0-.38.23-.64.89-.83.7.31,1.56.4,2.43.4,2.73,0,4.76-1.56,5.04-4.12l.02-.21c.14-1.21.33-1.37,1.05-1.37h1.28v-2.56h-.61c-1.12,0-1.66.4-1.84,2.13h-1c-.61-1.73-2.36-2.49-4.27-2.49-2.73,0-4.85,1.78-4.85,4.26,0,1.21.51,1.87,1.33,2.46v1.07c-1,.33-1.91.95-1.91,2.23,0,.85.58,1.37,1.33,1.59v1.09c-.84.26-1.61.95-1.61,1.89,0,1.14.7,2.23,2.92,2.23Zm3.1-10.39c-1.24,0-2.05-.8-2.05-2.01s.82-2.13,2.05-2.13,2.05.9,2.05,2.13-.82,2.01-2.05,2.01Zm-2.31,7.95c-.63,0-1.17-.36-1.17-1.11,0-.47.33-.9.61-1.07h5.11c1.1,0,1.45.52,1.45,1.07,0,.66-.35,1.11-1.45,1.11h-4.55Z"/><path class="cls-2" d="m95.25,23.02h3.31v-4.54c0-3.2,1.05-4.12,3.43-4.12.4,0,.82.02,1.28.07v-3.46c-.19-.02-.35-.02-.7-.02-2.47,0-3.43,1.4-3.94,3.83h-1.4c.54-.9,1-2.37,1-3.6h-2.99v11.84Z"/><path class="cls-2" d="m104.66,9.57h3.52v-3.17h-3.52v3.17Zm.12,13.45h3.31v-11.84h-3.31v11.84Z"/><path class="cls-2" d="m114.96,23.02h3.89v-2.67h-2.52c-.72,0-1.03-.33-1.03-1.04v-5.56h3.03v-2.56h-3.03v-3.72h-3.31v3.72h-2.45v2.56h2.45v6.18c0,1.85,1.07,3.1,2.96,3.1Z"/><path class="cls-2" d="m125.5,23.39c3.55,0,5.01-1.94,5.67-3.46l-2.96-1.16c-.49,1.11-1.21,2.06-2.71,2.06s-2.52-.85-2.61-2.94h8.23c.33-3.95-1.73-7.08-5.65-7.08-3.38,0-5.9,2.53-5.9,6.25s2.33,6.32,5.93,6.32Zm-2.5-7.86c.23-1.49,1.14-2.3,2.47-2.3,1.4,0,2.24.83,2.38,2.3h-4.85Z"/><path class="cls-2" d="m138.33,23.39c3.54,0,5.01-1.94,5.67-3.46l-2.96-1.16c-.49,1.11-1.21,2.06-2.71,2.06s-2.52-.85-2.61-2.94h8.23c.33-3.95-1.73-7.08-5.65-7.08-3.38,0-5.9,2.53-5.9,6.25s2.33,6.32,5.93,6.32Zm-2.5-7.86c.23-1.49,1.14-2.3,2.47-2.3,1.4,0,2.24.83,2.38,2.3h-4.85Z"/><path class="cls-3" d="m4.44,11v13.62c0,.17.04.33.13.47.08.14.21.26.35.35,1.39.79,5.46,3.08,7.69,4.33.19.11.48.28.61.21.75-.37,1.48-.81,2.28-1.26-.21-.14-.32-.22-.44-.29-2.71-1.54-5.42-3.09-8.13-4.63v-2.75l2.16,1.23c2.77,1.57,5.54,3.13,8.32,4.69.21.12.51.3.66.23.81-.39,1.59-.85,2.48-1.34l-13.63-7.76v-2.72c1.18.66,2.35,1.33,3.53,2,4.05,2.29,8.1,4.57,12.15,6.86.12.07.26.11.4.11s.28-.04.4-.11c.71-.41,1.42-.81,2.13-1.21l-2.86-1.63L4.44,11Z"/><path class="cls-1" d="m27.3,7.25c-1.83-.98-3.64-1.98-5.46-2.98l-2.86-1.57-2.51,1.37c2.76,1.5,5.52,3,8.29,4.5.16.07.3.18.39.32.09.14.13.3.12.47v2.03h-.02c-1.38-.75-5.65-2.95-7.02-3.7-1.37-.75-2.79-1.53-4.18-2.29l-2.66,1.45c3.67,2,10.01,5.32,13.89,7.41,0,.9,0,1.79,0,2.68-.05-.03-.09-.06-.14-.09-5.27-2.87-13.43-7.2-18.7-10.09l2.4-1.31,2.67-1.45,2.41-1.32,2.51-1.37L14.35.18c-.17-.09-.44-.22-.57-.16-.41.2-.81.41-1.22.63L3.61,5.53l-.11.05-.4.23L.45,7.25c-.14.06-.26.16-.34.29-.08.13-.11.28-.1.42.01,4.72.02,9.45,0,14.17-.01.16.02.31.11.45s.21.24.36.31c.69.36,1.37.74,2.06,1.11v-3.12c-.01-.08-.02-.16-.02-.24.02-3.91.02-7.81.02-11.72l1.23-.67c4.59,2.5,10.64,5.72,16.04,8.61l.04.02c1.63.88,3.2,1.72,4.66,2.5l3.22,1.73c0-4.36.01-8.73.04-13.09.01-.16-.02-.31-.11-.45-.08-.14-.21-.24-.36-.31Z"/></g></svg>